<svg xmlns="http://www.w3.org/2000/svg" xmlns:xlink="http://www.w3.org/1999/xlink" viewBox="0 0 100 125" version="1.1" x="0px" y="0px"><title>042 Mb</title><desc>Created with Sketch.</desc><g stroke="none" stroke-width="1" fill="none" fill-rule="evenodd"><g><circle fill="#000000" cx="50.5" cy="50.5" r="6.5"/><circle fill="#000000" cx="67.2398307" cy="31.2028308" r="2"/><circle fill="#000000" cx="34.2050597" cy="29.10643" r="2"/><circle fill="#000000" cx="24.0027857" cy="49.9625543" r="2"/><circle fill="#000000" cx="27.9034882" cy="63.1849995" r="2"/><circle fill="#000000" cx="26.3963002" cy="71.6672238" r="2"/><circle fill="#000000" cx="74.6051089" cy="70.4049756" r="2"/><circle fill="#000000" cx="55" cy="81.5232362" r="2"/><circle fill="#000000" cx="36.4655074" cy="21.0314276" r="2"/><circle fill="#000000" cx="35.9997771" cy="78.7046694" r="2"/><circle fill="#000000" cx="67" cy="77" r="2"/><circle fill="#000000" cx="19" cy="58" r="2"/><circle fill="#000000" cx="78.2041532" cy="35" r="2"/><circle fill="#000000" cx="54.9625543" cy="18.4219326" r="2"/><circle fill="#000000" cx="37.5691517" cy="11.9736989" r="2"/><circle fill="#000000" cx="70" cy="25" r="2"/><circle fill="#000000" cx="82" cy="48" r="2"/><circle fill="#000000" cx="81" cy="58" r="2"/><circle fill="#000000" cx="33" cy="69" r="2"/><circle fill="#000000" cx="57.6051669" cy="73.4566517" r="2"/><circle fill="#000000" cx="74.8285968" cy="47" r="2"/><circle fill="#000000" cx="29.1026409" cy="33.9812772" r="2"/><circle fill="#000000" cx="65.2755356" cy="69.4897959" r="2"/><circle fill="#000000" cx="61.5319289" cy="27.1274936" r="2"/><circle fill="#000000" cx="71.118689" cy="62.9860541" r="2"/><circle fill="#000000" cx="41.441881" cy="25.3382367" r="2"/><circle fill="#000000" cx="74.6507298" cy="54" r="2"/><circle fill="#000000" cx="73.6946394" cy="41" r="2"/><circle fill="#000000" cx="54" cy="24.2441767" r="2"/><circle fill="#000000" cx="46" cy="75" r="2"/><circle fill="#000000" cx="20.7824584" cy="36.9801627" r="2"/><circle fill="#000000" cx="38" cy="73" r="2"/><circle fill="#000000" cx="58.0739998" cy="32.7374344" r="2"/><circle fill="#000000" cx="67" cy="42" r="2"/><circle fill="#000000" cx="34" cy="40" r="2"/><circle fill="#000000" cx="32.2774993" cy="56.8457594" r="2"/><circle fill="#000000" cx="42.8598016" cy="67.5887661" r="2"/><circle fill="#000000" cx="36.2997884" cy="62.9763736" r="2"/><circle fill="#000000" cx="66" cy="60" r="2"/><circle fill="#000000" cx="45" cy="31" r="2"/><circle fill="#000000" cx="25.8861027" cy="39.9623314" r="2"/><circle fill="#000000" cx="57.0133735" cy="38.9420483" r="2"/><circle fill="#000000" cx="40" cy="58" r="2"/><circle stroke="#000000" stroke-width="0.2" cx="49.5" cy="49.5" r="25.5"/><circle stroke="#000000" stroke-width="0.2" cx="50" cy="50" r="32"/><circle stroke="#000000" stroke-width="0.2" cx="50" cy="50" r="40"/><circle stroke="#000000" stroke-width="0.2" cx="50" cy="50" r="19"/><circle stroke="#000000" stroke-width="0.2" cx="50" cy="50" r="13"/></g></g><text x="0" y="115" fill="#000000" font-size="5px" font-weight="bold" font-family="'Helvetica Neue', Helvetica, Arial-Unicode, Arial, Sans-serif">Created by Joel Wisneski</text><text x="0" y="120" fill="#000000" font-size="5px" font-weight="bold" font-family="'Helvetica Neue', Helvetica, Arial-Unicode, Arial, Sans-serif">from the Noun Project</text></svg>